<?xml version="1.0" standalone="no"?><!DOCTYPE svg PUBLIC "-//W3C//DTD SVG 1.1//EN" "http://www.w3.org/Graphics/SVG/1.1/DTD/svg11.dtd"><svg t="1627557223059" class="icon" viewBox="0 0 1024 1024" version="1.1" xmlns="http://www.w3.org/2000/svg" p-id="1110" xmlns:xlink="http://www.w3.org/1999/xlink" width="200" height="200"><defs><style type="text/css">@font-face { font-family: feedback-iconfont; src: url("//at.alicdn.com/t/font_1031158_1uhr8ri0pk5.eot?#iefix") format("embedded-opentype"), url("//at.alicdn.com/t/font_1031158_1uhr8ri0pk5.woff2") format("woff2"), url("//at.alicdn.com/t/font_1031158_1uhr8ri0pk5.woff") format("woff"), url("//at.alicdn.com/t/font_1031158_1uhr8ri0pk5.ttf") format("truetype"), url("//at.alicdn.com/t/font_1031158_1uhr8ri0pk5.svg#iconfont") format("svg"); }
</style></defs><path d="M910.092 463.092a23.008 23.008 0 0 1-13.636-4.474L512 176.53 127.543 458.618c-10.289 7.55-24.747 5.285-32.263-4.947-7.539-10.277-5.319-24.724 4.947-32.263L512 119.283l411.773 302.125c10.266 7.539 12.486 21.986 4.947 32.263-4.519 6.153-11.528 9.421-18.628 9.421z" fill="#d4237a" p-id="1111"></path><path d="M683.685 904.717h-343.37c-88.801 0-161.047-81.791-161.047-182.334V398.419c0-12.745 10.334-23.079 23.079-23.079 12.745 0 23.079 10.334 23.079 23.079v323.964c0 75.097 51.534 136.176 114.888 136.176h343.369c63.355 0 114.888-61.078 114.888-136.176V398.419c0-12.745 10.334-23.079 23.079-23.079s23.079 10.334 23.079 23.079v323.964c0.002 100.543-72.244 182.334-161.044 182.334z" fill="#d4237a" p-id="1112"></path></svg>